<svg xmlns="http://www.w3.org/2000/svg" width="46" height="54" viewBox="0 0 46 54">
    <g fill="none" fill-rule="evenodd">
        <g>
            <g>
                <g>
                    <path fill="#FFF" d="M21.982.602l-21 12.414C.373 13.376 0 14.031 0 14.738v24.524c0 .707.373 1.362.982 1.722l21 12.414c.628.371 1.408.371 2.036 0l21-12.414c.609-.36.982-1.015.982-1.722V14.738c0-.707-.373-1.362-.982-1.722l-21-12.414C23.39.23 22.61.23 21.982.602z" transform="translate(-853.000000, -2642.000000) translate(822.513789, 2618.388638) translate(30.486211, 23.611362)"/>
                    <path stroke="#000" stroke-width=".5" d="M18.158 19.636L32.684 27.48 18.158 35.591z" transform="translate(-853.000000, -2642.000000) translate(822.513789, 2618.388638) translate(30.486211, 23.611362)"/>
                </g>
            </g>
        </g>
    </g>
</svg>
