<svg xmlns="http://www.w3.org/2000/svg" width="136" height="80" viewBox="0 0 136 80">
    <g fill="none" fill-rule="evenodd">
        <g>
            <g>
                <g fill="#FFF">
                    <path d="M9.806 20.147c-.09-.04-.18-.171-.267-.395L2.205 2.664C1.65 1.32.913.647 0 .647v-.35h7.543v.35c-.218.414-.327.758-.327 1.034 0 .242.057.492.17.75l4.985 11.63L17.33 2.392c.13-.285.195-.518.195-.699 0-.276-.113-.625-.34-1.047v-.35h2.859v.35c-.444.172-.87.398-1.279.678-.409.28-.726.671-.953 1.172l-7.594 17.708c-.183 0-.32-.02-.412-.058M25.34 19.558c.862-.034 1.445-.479 1.75-1.332.121-.337.182-.617.182-.841V2.652c0-.225-.061-.51-.183-.854-.304-.845-.887-1.285-1.748-1.32V.298l14.732.026.157 4.489h-.287c-1.192-2.018-2.354-3.217-3.484-3.596-1.131-.38-2.297-.57-3.497-.57-.27 0-.548.009-.835.026v7.761h2.596c.617 0 1.234-.144 1.846-.433.614-.289 1.051-.55 1.312-.782l.17 4.488h-.287c-.862-1.216-1.738-2.009-2.63-2.38-.891-.37-1.829-.556-2.812-.556h-.195v9.132c0 .466.2.858.6 1.177.4.32 1.018.479 1.853.479 1.226 0 2.218-.199 2.975-.595.896-.466 1.975-1.656 3.236-3.57h.287l-.6 4.489c-5.046.017-10.091.025-15.137.025v-.35zM63.861 20.205c-1.992 0-3.64-.438-4.946-1.313-1.305-.875-2.588-2.947-3.85-6.216-.217-.569-.852-.853-1.905-.853v5.07c0 .587.087 1.152.262 1.695.174.543.36.919.561 1.125v.194h-7.608v-.35c.487-.016.872-.156 1.155-.42.283-.262.482-.564.6-.905.118-.34.176-.623.176-.847V2.82c0-.216-.058-.496-.176-.84-.118-.346-.317-.65-.6-.913s-.668-.403-1.155-.42v-.35H55.3c5.22 0 7.83 1.618 7.83 4.851-.008 1.406-.533 2.572-1.572 3.5-1.04.926-2.286 1.631-3.74 2.114.984.25 1.832.837 2.546 1.76l3.119 4.113c.74.965 1.56 1.695 2.46 2.186.9.491 1.58.737 2.042.737v.363l-4.124.284zm-7.85-9.644c.962-.271 1.593-.773 1.893-1.507.3-.732.45-1.513.45-2.341 0-1.604-.352-3.016-1.057-4.236-.704-1.22-1.753-1.83-3.145-1.83h-.992v10.322c.94 0 1.89-.136 2.852-.408zM72.739 17.25c-1.993-1.971-2.99-4.353-2.99-7.148 0-2.785.997-5.165 2.99-7.14C74.731.987 77.131 0 79.942 0c2.036 0 3.605.146 4.711.44.565.137 1.131.206 1.696.206l.222 5.834h-.3C84.07 2.454 81.669.44 79.068.44c-1.48 0-2.572.547-3.276 1.642-.704 1.096-1.056 2.76-1.056 4.993 0 1.5.213 3.083.639 4.748.566 2.277 1.361 4.057 2.388 5.342 1.026 1.285 2.47 1.927 4.332 1.927.374 0 .562-.13.562-.388v-4.812c0-.802-.325-1.475-.973-2.017-.649-.544-1.437-.893-2.369-1.048v-.35h8.744c-.217.259-.407.693-.568 1.3-.16.608-.241 1.218-.241 1.83v4.58c-.906.638-2.06 1.134-3.466 1.487-1.404.354-2.685.53-3.842.53-2.81 0-5.21-.985-7.203-2.955M93.356 19.558c.861-.034 1.444-.479 1.748-1.332.122-.337.183-.617.183-.841V2.652c0-.225-.06-.51-.183-.854C94.8.953 94.217.513 93.356.478V.298l14.732.026.157 4.489h-.287c-1.192-2.018-2.353-3.217-3.484-3.596-1.132-.38-2.297-.57-3.498-.57-.27 0-.548.009-.835.026v7.761h2.598c.617 0 1.232-.144 1.846-.433.613-.289 1.05-.55 1.31-.782l.17 4.488h-.287c-.86-1.216-1.737-2.009-2.63-2.38-.89-.37-1.827-.556-2.81-.556h-.197v9.132c0 .466.2.858.6 1.177.4.32 1.018.479 1.854.479 1.226 0 2.218-.199 2.974-.595.896-.466 1.976-1.656 3.237-3.57h.287l-.6 4.489c-5.045.017-10.091.025-15.137.025v-.35zM131.876 20.205c-1.992 0-3.64-.438-4.946-1.313-1.304-.875-2.588-2.947-3.848-6.216-.218-.569-.853-.853-1.906-.853v5.07c0 .587.087 1.152.261 1.695.174.543.36.919.561 1.125v.194h-7.608v-.35c.487-.016.872-.156 1.155-.42.283-.262.484-.564.6-.905.118-.34.176-.623.176-.847V2.82c0-.216-.058-.496-.175-.84-.117-.346-.318-.65-.601-.913s-.668-.403-1.155-.42v-.35h8.926c5.22 0 7.83 1.618 7.83 4.851-.009 1.406-.534 2.572-1.573 3.5-1.04.926-2.286 1.631-3.739 2.114.983.25 1.832.837 2.545 1.76l3.119 4.113c.74.965 1.56 1.695 2.46 2.186.9.491 1.58.737 2.042.737v.363l-4.124.284zm-7.848-9.644c.96-.271 1.59-.773 1.892-1.507.3-.732.45-1.513.45-2.341 0-1.604-.352-3.016-1.058-4.236-.704-1.22-1.753-1.83-3.144-1.83h-.992v10.322c.94 0 1.89-.136 2.852-.408z" transform="translate(-32.000000, -29.000000) translate(32.000000, 29.000000) translate(0.000000, 59.795093)"/>
                </g>
                <path fill="#FBB040" d="M66 0L83 9.75 83 29.25 66 39 49 29.25 49 9.75z" transform="translate(-32.000000, -29.000000) translate(32.000000, 29.000000)"/>
                <path fill="#020200" d="M83 29.252c-6.351-.01-12.54-3.091-16.293-8.62-.02.02-.048.03-.077.039C69.6 26.654 69.18 33.528 66 39c-3.18-5.472-3.6-12.346-.63-18.33-.029-.008-.058-.018-.077-.037-3.743 5.528-9.932 8.61-16.293 8.62 3.17-5.472 8.959-9.255 15.663-9.701-.01-.02-.01-.038-.01-.057v-.038C57.95 19.002 52.172 15.219 49 9.747c6.36.01 12.55 3.082 16.284 8.62.019-.019.048-.038.076-.048C62.41 12.336 62.82 5.471 66 0c3.18 5.471 3.591 12.336.64 18.32.029.009.057.028.076.046C70.451 12.83 76.64 9.756 83 9.747c-3.17 5.472-8.948 9.255-15.653 9.71v.038c0 .02 0 .038-.01.057 6.705.446 12.492 4.229 15.663 9.7" transform="translate(-32.000000, -29.000000) translate(32.000000, 29.000000)"/>
            </g>
        </g>
    </g>
</svg>
