<svg xmlns="http://www.w3.org/2000/svg" width="118" height="70" viewBox="0 0 118 70">
    <g fill="none" fill-rule="evenodd">
        <g>
            <g>
                <path fill="#FFF" d="M8.487 69.492c-.078-.034-.156-.149-.231-.344L1.909 54.295C1.427 53.125.79 52.54 0 52.54v-.304h6.528v.304c-.188.36-.282.66-.282.899 0 .21.048.427.147.653L10.707 64.2l4.291-10.142c.113-.248.17-.45.17-.608 0-.24-.098-.543-.294-.91v-.304h2.474v.304c-.384.15-.754.346-1.107.59-.354.243-.629.583-.825 1.018L8.843 69.542c-.158 0-.277-.017-.356-.05M21.932 68.98c.745-.03 1.25-.416 1.513-1.158.106-.293.159-.536.159-.731V54.284c0-.196-.053-.443-.159-.743-.263-.734-.768-1.116-1.513-1.146v-.158l12.75.023.136 3.901h-.248c-1.032-1.754-2.037-2.796-3.016-3.126-.978-.33-1.987-.494-3.026-.494-.234 0-.475.007-.723.022v6.747h2.247c.534 0 1.068-.126 1.598-.377s.91-.478 1.135-.68l.147 3.902h-.248c-.746-1.058-1.504-1.747-2.276-2.07-.772-.322-1.583-.483-2.434-.483h-.169v7.939c0 .404.173.745.52 1.023.346.277.88.416 1.603.416 1.062 0 1.92-.173 2.575-.518.775-.404 1.71-1.439 2.8-3.103h.25l-.52 3.902c-4.368.015-8.734.022-13.101.022v-.303zM55.27 69.542c-1.724 0-3.15-.38-4.28-1.141-1.13-.76-2.24-2.562-3.332-5.403-.188-.495-.738-.742-1.649-.742v4.408c0 .51.075 1 .226 1.473.15.472.313.798.486.978v.168h-6.585v-.303c.422-.015.755-.137 1-.365.245-.229.418-.491.52-.788.101-.296.152-.54.152-.736V54.43c0-.187-.05-.431-.152-.73-.102-.3-.275-.565-.52-.794-.245-.228-.578-.35-1-.365v-.304h7.725c4.518 0 6.777 1.406 6.777 4.217-.007 1.221-.462 2.236-1.361 3.041-.9.806-1.978 1.42-3.236 1.839.851.217 1.585.727 2.203 1.529l2.699 3.576c.64.84 1.35 1.473 2.129 1.9.779.427 1.368.64 1.767.64v.316l-3.569.247zm-6.793-8.383c.832-.236 1.378-.672 1.638-1.31.26-.636.389-1.315.389-2.035 0-1.394-.304-2.621-.915-3.682-.61-1.06-1.517-1.591-2.721-1.591h-.859v8.973c.813 0 1.636-.118 2.468-.355zM62.954 66.973c-1.725-1.713-2.587-3.784-2.587-6.213 0-2.421.862-4.49 2.587-6.207 1.724-1.716 3.802-2.574 6.234-2.574 1.762 0 3.12.127 4.077.382.49.12.98.18 1.468.18l.193 5.07h-.26c-1.906-3.5-3.984-5.25-6.234-5.25-1.28 0-2.226.476-2.835 1.428-.61.952-.915 2.398-.915 4.34 0 1.304.185 2.68.553 4.127.49 1.979 1.178 3.527 2.067 4.643.888 1.117 2.138 1.676 3.75 1.676.323 0 .485-.113.485-.337v-4.183c0-.697-.28-1.282-.842-1.754-.56-.472-1.243-.776-2.05-.911v-.304h7.568c-.188.225-.352.602-.491 1.13-.14.529-.21 1.059-.21 1.592v3.98c-.783.555-1.782.986-2.999 1.293-1.215.308-2.324.461-3.325.461-2.432 0-4.51-.856-6.234-2.57M80.797 68.98c.746-.03 1.25-.416 1.513-1.158.106-.293.159-.536.159-.731V54.284c0-.196-.053-.443-.159-.743-.263-.734-.767-1.116-1.513-1.146v-.158l12.75.023.136 3.901h-.248c-1.032-1.754-2.037-2.796-3.016-3.126-.978-.33-1.987-.494-3.026-.494-.234 0-.475.007-.723.022v6.747h2.248c.534 0 1.067-.126 1.598-.377.53-.251.908-.478 1.134-.68l.147 3.902h-.248c-.745-1.058-1.504-1.747-2.276-2.07-.772-.322-1.582-.483-2.433-.483h-.17v7.939c0 .404.173.745.52 1.023.346.277.88.416 1.604.416 1.06 0 1.919-.173 2.574-.518.775-.404 1.71-1.439 2.8-3.103h.25l-.52 3.902c-4.366.015-8.733.022-13.1.022v-.303zM114.136 69.542c-1.724 0-3.151-.38-4.28-1.141-1.13-.76-2.24-2.562-3.332-5.403-.188-.495-.738-.742-1.65-.742v4.408c0 .51.076 1 .227 1.473.15.472.312.798.486.978v.168h-6.585v-.303c.422-.015.755-.137 1-.365.244-.229.418-.491.52-.788.101-.296.152-.54.152-.736V54.43c0-.187-.05-.431-.152-.73-.102-.3-.276-.565-.52-.794-.245-.228-.578-.35-1-.365v-.304h7.725c4.518 0 6.777 1.406 6.777 4.217-.008 1.221-.462 2.236-1.361 3.041-.9.806-1.979 1.42-3.237 1.839.852.217 1.586.727 2.203 1.529l2.7 3.576c.64.84 1.349 1.473 2.128 1.9.78.427 1.369.64 1.768.64v.316l-3.57.247zm-6.793-8.383c.831-.236 1.377-.672 1.638-1.31.259-.636.389-1.315.389-2.035 0-1.394-.305-2.621-.915-3.682-.61-1.06-1.517-1.591-2.722-1.591h-.858v8.973c.813 0 1.636-.118 2.468-.355z" transform="translate(-664.000000, -9184.000000) translate(664.000000, 9184.000000)"/>
                <path fill="#FBB040" d="M57.318 0.006L72.088 8.496 72.088 25.476 57.318 33.966 42.548 25.476 42.548 8.496z" transform="translate(-664.000000, -9184.000000) translate(664.000000, 9184.000000)"/>
                <path fill="#414042" d="M72.088 25.487c-5.518-.009-10.895-2.694-14.156-7.51-.017.017-.041.025-.066.033 2.58 5.213 2.215 11.202-.548 15.97-2.763-4.768-3.128-10.757-.548-15.97-.024-.008-.05-.016-.066-.033-3.252 4.816-8.63 7.501-14.156 7.51 2.755-4.767 7.783-8.064 13.608-8.452-.008-.017-.008-.033-.008-.05v-.033c-5.825-.396-10.845-3.692-13.6-8.46 5.526.009 10.904 2.686 14.148 7.51.016-.016.041-.033.066-.04-2.564-5.214-2.207-11.195.556-15.962 2.763 4.767 3.12 10.748.556 15.961.025.008.05.025.067.041 3.244-4.824 8.62-7.501 14.147-7.51-2.755 4.768-7.775 8.064-13.6 8.46v.034c0 .016 0 .032-.008.05 5.825.387 10.853 3.684 13.608 8.45" transform="translate(-664.000000, -9184.000000) translate(664.000000, 9184.000000)"/>
            </g>
        </g>
    </g>
</svg>
